<?xml version="1.0" standalone="no"?>
<!DOCTYPE svg PUBLIC "-//W3C//DTD SVG 20010904//EN"
 "http://www.w3.org/TR/2001/REC-SVG-20010904/DTD/svg10.dtd">
<svg version="1.0" xmlns="http://www.w3.org/2000/svg"
 width="400.000000pt" height="400.000000pt" viewBox="0 0 400.000000 400.000000"
 preserveAspectRatio="xMidYMid meet">
<metadata>
Created by potrace 1.11, written by Peter Selinger 2001-2013
</metadata>
<g transform="translate(0.000000,400.000000) scale(0.100000,-0.100000)"
fill="#000000" stroke="none">
<path d="M0 1995 l0 -1625 2000 0 2000 0 0 1625 0 1625 -2000 0 -2000 0 0
-1625z m2998 870 c130 -71 162 -232 97 -487 -114 -446 -418 -731 -829 -778
-76 -9 -91 -14 -108 -35 -25 -32 -83 -35 -93 -5 -3 11 -4 24 0 30 3 5 -7 12
-22 16 -15 3 -38 12 -50 20 -19 12 -28 11 -69 -8 -60 -26 -141 -29 -177 -6
-55 37 -60 139 -13 276 74 215 231 404 356 427 52 9 88 -9 106 -52 30 -70 -13
-181 -102 -263 -47 -42 -166 -110 -236 -133 -17 -6 -43 -98 -37 -132 6 -31 43
-29 118 5 70 33 111 34 111 4 0 -13 46 -42 53 -33 2 2 49 110 104 239 116 270
242 543 314 679 27 52 47 96 45 98 -2 3 -27 -7 -56 -22 -67 -34 -92 -27 -88
23 4 44 32 65 146 112 42 17 87 36 99 42 12 6 34 9 50 6 15 -3 39 -2 53 3 14
4 59 7 100 5 61 -2 86 -8 128 -31z m-2024 3 c8 -13 3 -35 -23 -95 -18 -43 -77
-186 -131 -318 -54 -132 -145 -349 -203 -483 -73 -167 -101 -244 -93 -250 6
-4 102 -7 214 -7 168 -1 205 -3 212 -15 14 -22 13 -27 -19 -62 l-29 -33 -194
-3 c-106 -2 -231 1 -278 5 l-85 8 -3 30 c-2 21 6 44 24 70 42 61 140 264 205
425 193 471 293 696 321 723 32 31 64 33 82 5z m444 -360 c26 -26 2 -106 -37
-128 -33 -17 -89 -12 -101 9 -19 37 -11 68 25 100 38 33 90 42 113 19z m342
-6 c19 -9 45 -32 57 -51 78 -116 -46 -428 -283 -712 -110 -132 -147 -156 -189
-125 -18 13 -19 21 -7 162 29 369 44 499 61 518 32 37 83 42 95 10 3 -8 -3
-113 -14 -232 -24 -265 -24 -258 -6 -242 31 25 140 195 181 283 51 109 73 199
59 248 -8 29 -17 36 -59 50 -59 18 -70 46 -34 85 28 30 87 32 139 6z m-456
-188 c30 -30 18 -80 -70 -282 -48 -108 -97 -218 -110 -244 -13 -26 -24 -49
-24 -51 0 -1 12 -3 26 -2 15 0 32 -8 38 -18 18 -29 -12 -68 -78 -101 -54 -28
-60 -29 -85 -15 -55 31 -37 91 165 539 14 30 26 70 28 90 5 50 15 69 45 85 34
18 46 18 65 -1z m2156 -5 c25 -6 57 -22 73 -37 82 -78 40 -207 -108 -337 l-66
-58 31 -15 c134 -65 133 -336 -1 -537 -111 -166 -288 -254 -489 -243 -175 10
-320 130 -320 264 0 125 90 239 141 178 10 -13 10 -24 -1 -62 -32 -113 -21
-159 51 -212 82 -59 245 -67 351 -18 141 65 248 230 248 381 0 88 -59 177
-117 177 -13 0 -51 -9 -85 -21 -33 -11 -72 -19 -86 -17 -36 4 -49 30 -33 62
14 24 25 31 172 100 77 36 213 148 223 184 22 82 10 102 -58 102 -73 0 -133
-28 -238 -111 -19 -16 -34 -20 -52 -15 -22 5 -26 12 -26 41 0 26 9 43 37 71
43 44 182 112 249 123 27 5 51 9 54 10 3 0 25 -4 50 -10z"/>
<path d="M2706 2757 c-26 -39 -221 -445 -296 -617 -87 -197 -180 -418 -180
-425 0 -10 87 -4 147 10 261 61 479 278 576 572 107 323 53 483 -160 483 -64
0 -74 -3 -87 -23z"/>
<path d="M2023 2165 c-40 -34 -128 -154 -119 -162 7 -7 80 33 116 64 31 25 69
92 70 121 0 22 -25 13 -67 -23z"/>
</g>
</svg>
